<svg width="66" height="15" viewBox="0 0 66 15" fill="none" xmlns="http://www.w3.org/2000/svg">
<path d="M0.992453 14.208C0.68312 14.208 0.437787 14.1227 0.256453 13.952C0.0857866 13.792 0.000453234 13.5627 0.000453234 13.264C0.000453234 12.9867 0.0751199 12.752 0.224453 12.56C0.373787 12.3573 0.661787 12.1653 1.08845 11.984C1.12045 11.9733 1.15245 11.9627 1.18445 11.952C0.917787 11.8987 0.73112 11.7493 0.624453 11.504C0.528453 11.2587 0.480453 10.976 0.480453 10.656C0.480453 10.4747 0.512453 10.1813 0.576453 9.77599C0.640453 9.37066 0.720453 8.90666 0.816453 8.38399C0.912453 7.86133 1.01379 7.34399 1.12045 6.83199C1.22712 6.30933 1.31779 5.85066 1.39245 5.45599C1.59512 4.54933 1.85645 3.74933 2.17645 3.05599C2.49645 2.36266 2.92845 1.82399 3.47245 1.43999C4.01645 1.04533 4.71512 0.847994 5.56845 0.847994C6.21912 0.847994 6.85912 0.986661 7.48845 1.26399C8.12845 1.53066 8.70979 1.90933 9.23245 2.39999C9.75512 2.89066 10.1711 3.46666 10.4805 4.12799C10.8005 4.78933 10.9605 5.51466 10.9605 6.30399C10.9605 7.19999 10.6085 8.10133 9.90445 9.00799C9.20045 9.91466 8.21379 10.784 6.94445 11.616C5.68579 12.4373 4.21379 13.1787 2.52845 13.84C2.25112 13.9467 2.00045 14.032 1.77645 14.096C1.56312 14.1707 1.30179 14.208 0.992453 14.208ZM2.36845 11.488C3.91512 10.8693 5.16312 10.2773 6.11245 9.71199C7.06179 9.14666 7.74979 8.54933 8.17645 7.91999C8.61379 7.29066 8.83245 6.57599 8.83245 5.77599C8.83245 5.32799 8.68312 4.90133 8.38445 4.49599C8.08579 4.09066 7.70179 3.76533 7.23245 3.51999C6.76312 3.26399 6.26712 3.13599 5.74445 3.13599C5.17912 3.13599 4.72579 3.36533 4.38445 3.82399C4.04312 4.27199 3.77112 5.03999 3.56845 6.12799C3.47245 6.56533 3.37112 7.03999 3.26445 7.55199C3.16845 8.05333 3.07245 8.53866 2.97645 9.00799C2.89112 9.46666 2.81645 9.85066 2.75245 10.16C2.69912 10.4693 2.66712 10.6507 2.65645 10.704C2.60312 11.024 2.50712 11.2853 2.36845 11.488ZM18.552 13.36C18.264 13.36 17.9493 13.2907 17.608 13.152C17.2773 13.0027 16.9626 12.752 16.664 12.4C16.3653 12.048 16.12 11.5627 15.928 10.944C15.736 10.3253 15.64 9.54133 15.64 8.59199C15.64 7.88799 15.7306 7.17333 15.912 6.44799C16.104 5.71199 16.4026 5.01866 16.808 4.36799C17.2133 3.71733 17.736 3.15199 18.376 2.67199C19.0266 2.19199 19.8053 1.85599 20.712 1.66399C21.0853 1.57866 21.512 1.49866 21.992 1.42399C22.4826 1.33866 22.9786 1.26399 23.48 1.19999C23.9813 1.12533 24.456 1.06666 24.904 1.02399C25.3626 0.981328 25.7466 0.959994 26.056 0.959994C26.568 0.959994 26.952 1.02933 27.208 1.16799C27.464 1.30666 27.6346 1.46666 27.72 1.64799C27.8053 1.81866 27.848 1.97333 27.848 2.11199C27.848 2.28266 27.7946 2.45333 27.688 2.62399C27.592 2.79466 27.3253 2.90666 26.888 2.95999C26.792 2.97066 26.5893 2.99733 26.28 3.03999C25.9706 3.07199 25.5973 3.11999 25.16 3.18399C24.7333 3.24799 24.28 3.31733 23.8 3.39199C23.3306 3.45599 22.872 3.52533 22.424 3.59999C21.9866 3.66399 21.608 3.72266 21.288 3.77599C20.584 3.90399 20.0133 4.11733 19.576 4.41599C19.1386 4.70399 18.7973 5.04533 18.552 5.43999C18.3173 5.83466 18.1466 6.25066 18.04 6.68799C18.4666 6.59199 18.9093 6.49599 19.368 6.39999C19.8266 6.30399 20.2586 6.21866 20.664 6.14399C21.08 6.06933 21.4373 6.01066 21.736 5.96799C22.0346 5.92533 22.2373 5.90399 22.344 5.90399C22.76 5.90399 23.0106 5.95733 23.096 6.06399C23.192 6.17066 23.24 6.33599 23.24 6.55999C23.24 6.76266 23.0586 6.99733 22.696 7.26399C22.3333 7.51999 21.7573 7.78133 20.968 8.04799C20.1786 8.31466 19.144 8.54933 17.864 8.75199C17.864 8.76266 17.864 8.76799 17.864 8.76799C17.8426 8.98133 17.8266 9.22666 17.816 9.50399C17.8053 9.77066 17.8 10.0373 17.8 10.304C17.8 10.5707 17.816 10.7893 17.848 10.96C17.88 11.1307 17.9386 11.216 18.024 11.216C18.2586 11.216 18.584 11.168 19 11.072C19.416 10.976 19.8533 10.8587 20.312 10.72C20.7706 10.5813 21.1973 10.448 21.592 10.32C21.9866 10.1813 22.2746 10.0747 22.456 9.99999C22.7226 9.89333 22.9893 9.78666 23.256 9.67999C23.5333 9.57333 23.752 9.51999 23.912 9.51999C24.072 9.51999 24.2106 9.58399 24.328 9.71199C24.4453 9.82933 24.4826 10.0107 24.44 10.256C24.4293 10.3627 24.3173 10.5387 24.104 10.784C23.9013 11.0187 23.6186 11.2853 23.256 11.584C22.904 11.872 22.4826 12.1547 21.992 12.432C21.512 12.6987 20.9786 12.9227 20.392 13.104C19.816 13.2747 19.2026 13.36 18.552 13.36ZM29.7702 13.664C29.5142 13.664 29.2902 13.5893 29.0982 13.44C28.9062 13.2907 28.8102 12.9707 28.8102 12.48C28.8102 12.256 28.8902 11.8987 29.0502 11.408C29.2102 10.9173 29.4235 10.3413 29.6902 9.67999C29.9675 9.00799 30.2769 8.29866 30.6182 7.55199C30.9595 6.80533 31.3169 6.06399 31.6902 5.32799C32.0635 4.59199 32.4262 3.90933 32.7782 3.27999C33.1302 2.65066 33.4555 2.11733 33.7542 1.67999C34.0635 1.23199 34.3142 0.933327 34.5062 0.783994C34.7835 0.581327 35.0609 0.479994 35.3382 0.479994C35.4875 0.479994 35.6315 0.495994 35.7702 0.527994C35.9195 0.559994 36.0422 0.613328 36.1382 0.687994C36.3622 0.826661 36.5595 1.09333 36.7302 1.48799C36.9115 1.87199 37.0715 2.33599 37.2102 2.87999C37.3595 3.42399 37.4822 4.01066 37.5782 4.63999C37.6849 5.25866 37.7755 5.87199 37.8502 6.47999C38.2555 6.42666 38.5329 6.39999 38.6822 6.39999C39.0022 6.39999 39.2849 6.44799 39.5302 6.54399C39.7755 6.62933 39.9035 6.81066 39.9142 7.08799C39.9355 7.35466 39.8502 7.57866 39.6582 7.75999C39.4769 7.94133 39.2422 8.07466 38.9542 8.15999C38.8262 8.20266 38.5169 8.27199 38.0262 8.36799C38.0582 8.91199 38.0742 9.37066 38.0742 9.74399C38.0742 10.6933 38.0209 11.4293 37.9142 11.952C37.8182 12.4747 37.6902 12.848 37.5302 13.072C37.3809 13.296 37.2209 13.4293 37.0502 13.472C36.8902 13.5253 36.7462 13.552 36.6182 13.552C36.6075 13.552 36.5969 13.552 36.5862 13.552C36.2769 13.552 36.0475 13.472 35.8982 13.312C35.7595 13.152 35.6902 12.8853 35.6902 12.512V11.376C35.6902 11.024 35.6849 10.6293 35.6742 10.192C35.6635 9.75466 35.6422 9.29066 35.6102 8.79999C34.9809 8.90666 34.3515 9.01333 33.7222 9.11999C33.1035 9.21599 32.5702 9.30133 32.1222 9.37599C31.9195 9.85599 31.7435 10.288 31.5942 10.672C31.4449 11.0453 31.3435 11.3387 31.2902 11.552C31.1302 12.0747 30.9809 12.4853 30.8422 12.784C30.7035 13.072 30.5702 13.2747 30.4422 13.392C30.3249 13.52 30.2129 13.5947 30.1062 13.616C29.9995 13.648 29.8875 13.664 29.7702 13.664ZM33.0022 7.40799C33.4502 7.30133 33.8822 7.20533 34.2982 7.11999C34.7142 7.02399 35.1089 6.93866 35.4822 6.86399C35.4289 6.20266 35.3649 5.55733 35.2902 4.92799C35.2155 4.29866 35.1302 3.73866 35.0342 3.24799C34.7569 3.78133 34.4315 4.42133 34.0582 5.16799C33.6955 5.90399 33.3435 6.65066 33.0022 7.40799ZM47.2142 14.064C46.8195 14.064 46.4089 13.968 45.9822 13.776C45.5555 13.5947 45.1929 13.2853 44.8942 12.848C44.6062 12.4107 44.4622 11.8293 44.4622 11.104C44.4622 10.336 44.5262 9.54133 44.6542 8.71999C44.7929 7.88799 44.9689 7.07199 45.1822 6.27199C45.4062 5.46133 45.6462 4.69866 45.9022 3.98399C46.1689 3.26933 46.4302 2.63466 46.6862 2.07999C46.9529 1.52533 47.1982 1.09333 47.4222 0.783994C47.6569 0.463994 47.8435 0.303994 47.9822 0.303994C48.2702 0.303994 48.5262 0.410661 48.7502 0.623994C48.9849 0.837328 49.1022 1.16266 49.1022 1.59999C49.1022 1.70666 49.0382 1.96799 48.9102 2.38399C48.7929 2.78933 48.6382 3.29599 48.4462 3.90399C48.2649 4.51199 48.0622 5.17333 47.8382 5.88799C47.6249 6.59199 47.4222 7.30666 47.2302 8.03199C47.0489 8.75733 46.8942 9.43999 46.7662 10.08C46.6489 10.72 46.5902 11.2693 46.5902 11.728C46.5902 11.856 46.6649 11.92 46.8142 11.92C47.0275 11.92 47.3422 11.8667 47.7582 11.76C48.1849 11.6533 48.6489 11.52 49.1502 11.36C49.6622 11.1893 50.1529 11.024 50.6222 10.864C51.0915 10.704 51.4915 10.5707 51.8222 10.464C52.1529 10.3573 52.3395 10.304 52.3822 10.304C52.6489 10.304 52.8622 10.3787 53.0222 10.528C53.1822 10.6773 53.2622 10.8907 53.2622 11.168C53.2622 11.36 53.1342 11.584 52.8782 11.84C52.6222 12.0853 52.2809 12.3413 51.8542 12.608C51.4275 12.864 50.9475 13.0987 50.4142 13.312C49.8915 13.536 49.3529 13.7173 48.7982 13.856C48.2435 13.9947 47.7155 14.064 47.2142 14.064ZM57.946 13.856C57.5193 13.856 57.1993 13.7387 56.986 13.504C56.7726 13.2693 56.666 13.0293 56.666 12.784C56.666 12.496 56.7193 12.2773 56.826 12.128C56.9326 11.9787 57.1406 11.8667 57.45 11.792C57.8553 11.7067 58.2766 11.6 58.714 11.472C59.162 11.344 59.5886 11.2107 59.994 11.072C60.41 10.9227 60.7726 10.7733 61.082 10.624C61.3913 10.464 61.6153 10.3147 61.754 10.176C61.5833 10.08 61.3113 9.96799 60.938 9.83999C60.5646 9.70133 60.1486 9.54133 59.69 9.35999C59.242 9.16799 58.81 8.94399 58.394 8.68799C57.978 8.43199 57.6366 8.13333 57.37 7.79199C57.1033 7.45066 56.97 7.06133 56.97 6.62399C56.97 6.01599 57.1246 5.44533 57.434 4.91199C57.7433 4.37866 58.154 3.88266 58.666 3.42399C59.178 2.96533 59.7326 2.54399 60.33 2.15999C60.938 1.77599 61.5406 1.42933 62.138 1.11999C62.746 0.799994 63.29 0.517327 63.77 0.271994C63.9513 0.165327 64.122 0.095994 64.282 0.0639944C64.4526 0.0213277 64.6073 -5.72205e-06 64.746 -5.72205e-06C65.226 -5.72205e-06 65.5566 0.117327 65.738 0.351994C65.9193 0.58666 66.01 0.82666 66.01 1.07199C66.01 1.24266 65.93 1.44533 65.77 1.67999C65.61 1.90399 65.354 2.11199 65.002 2.30399C64.6606 2.49599 64.2073 2.63466 63.642 2.71999C63.546 2.73066 63.4606 2.74133 63.386 2.75199C62.9593 2.96533 62.5006 3.22133 62.01 3.51999C61.5193 3.81866 61.0553 4.13333 60.618 4.46399C60.1913 4.78399 59.8393 5.10399 59.562 5.42399C59.2846 5.74399 59.146 6.03199 59.146 6.28799C59.146 6.57599 59.2633 6.83733 59.498 7.07199C59.7326 7.29599 60.0313 7.50399 60.394 7.69599C60.7673 7.87733 61.1566 8.05333 61.562 8.22399C61.978 8.39466 62.3673 8.57066 62.73 8.75199C63.1033 8.92266 63.4073 9.11466 63.642 9.32799C63.8766 9.54133 63.994 9.78133 63.994 10.048C63.994 10.4107 63.8713 10.7573 63.626 11.088C63.3806 11.4187 63.0606 11.728 62.666 12.016C62.2713 12.2933 61.8393 12.544 61.37 12.768C60.9006 12.992 60.4366 13.184 59.978 13.344C59.53 13.5147 59.1246 13.6427 58.762 13.728C58.3993 13.8133 58.1273 13.856 57.946 13.856Z" fill="#AE0200"/>
</svg>
