<svg width="13" height="13" viewBox="0 0 13 13" fill="none" xmlns="http://www.w3.org/2000/svg">
<mask id="mask0_842_727" style="mask-type:luminance" maskUnits="userSpaceOnUse" x="0" y="0" width="13" height="13">
<path d="M6.06657 11.4832C6.77803 11.4841 7.48265 11.3444 8.13994 11.0721C8.79724 10.7999 9.39426 10.4004 9.8967 9.8967C10.4004 9.39426 10.7999 8.79724 11.0721 8.13994C11.3444 7.48265 11.4841 6.77803 11.4832 6.06657C11.4841 5.35512 11.3444 4.6505 11.0721 3.99321C10.7999 3.33591 10.4004 2.73889 9.8967 2.23645C9.39426 1.73274 8.79724 1.33328 8.13994 1.06101C7.48265 0.788739 6.77803 0.649029 6.06657 0.649906C5.35512 0.649029 4.6505 0.788739 3.99321 1.06101C3.33591 1.33328 2.73889 1.73274 2.23645 2.23645C1.73274 2.73889 1.33328 3.33591 1.06101 3.99321C0.788739 4.6505 0.649029 5.35512 0.649906 6.06657C0.649029 6.77803 0.788739 7.48265 1.06101 8.13994C1.33328 8.79724 1.73274 9.39426 2.23645 9.8967C2.73889 10.4004 3.33591 10.7999 3.99321 11.0721C4.6505 11.3444 5.35512 11.4841 6.06657 11.4832Z" fill="white" stroke="white" stroke-width="1.3" stroke-linejoin="round"/>
<path d="M3.8999 6.06689L5.5249 7.69189L8.7749 4.44189" stroke="black" stroke-width="1.3" stroke-linecap="round" stroke-linejoin="round"/>
</mask>
<g mask="url(#mask0_842_727)">
<path d="M-0.432129 -0.433105H12.5679V12.5669H-0.432129V-0.433105Z" fill="#0247B1"/>
</g>
</svg>
